<?xml version="1.0" encoding="utf-8"?>
<!-- Generator: Adobe Illustrator 23.1.1, SVG Export Plug-In . SVG Version: 6.00 Build 0)  -->
<svg version="1.1" id="Layer_1" xmlns="http://www.w3.org/2000/svg" xmlns:xlink="http://www.w3.org/1999/xlink" x="0px" y="0px"
	 viewBox="0 0 332.8 60.9" style="enable-background:new 0 0 332.8 60.9;" xml:space="preserve">
<style type="text/css">
	.st0{fill:#FFFFFF;}
</style>
<g>
	<g>
		<path class="st0" d="M24.6,28.8v-11l-5.3,9.7l-5.2-9.6v11l1.7,1.2v3.2H7.4V30l1.7-1.2V13.2L7.4,12V8.7h7.3l4.7,8.6l4.8-8.6h7.2V12
			l-1.7,1.2v15.6l1.7,1.2v3.2h-8.4V30L24.6,28.8z"/>
		<path class="st0" d="M44.9,33.2h-9V30l1.7-1.2V13.2L35.9,12V8.7h9V12l-1.7,1.2v15.6l1.7,1.2V33.2z"/>
		<path class="st0" d="M65.2,12.4l0.3,0.4v2.8h-5.5v-1.1l-0.7-0.6h-3.8L55,14.4v3.5l0.1,0.1h7.6l2.6,2.8l0.3,0.4V29l-3.8,4.2h-8.7
			l-3.4-3.8L49.5,29v-3.4H55v1.9l0.7,0.9h3.7l0.7-0.9v-4.8L60,22.6h-7.8l-2.8-3.3v-6.6l3.3-3.6l0.4-0.4h8.7L65.2,12.4z"/>
		<path class="st0" d="M85.9,12.4l0.3,0.4v2.8h-5.5v-1.1l-0.7-0.6h-3.8l-0.6,0.6v3.5l0.1,0.1h7.6l2.6,2.8l0.3,0.4V29l-3.8,4.2h-8.7
			l-3.4-3.8L70.2,29v-3.4h5.5v1.9l0.7,0.9H80l0.7-0.9v-4.8l-0.1-0.1h-7.8l-2.8-3.3v-6.6l3.3-3.6l0.4-0.4h8.7L85.9,12.4z"/>
		<path class="st0" d="M99.8,33.2h-9V30l1.7-1.2V13.2L90.9,12V8.7h9V12l-1.7,1.2v15.6l1.7,1.2V33.2z"/>
		<path class="st0" d="M120.2,12.4l0.3,0.4v2.8H115v-1.1l-0.7-0.6h-3.8l-0.6,0.6v3.5L110,18h7.6l2.6,2.8l0.3,0.4V29l-3.8,4.2h-8.7
			l-3.4-3.8l-0.3-0.3v-3.4h5.5v1.9l0.7,0.9h3.7l0.7-0.9v-4.8l-0.1-0.1h-7.8l-2.8-3.3v-6.6l3.3-3.6l0.4-0.4h8.7L120.2,12.4z"/>
		<path class="st0" d="M140.9,12.4l0.3,0.4v2.8h-5.5v-1.1l-0.7-0.6h-3.8l-0.6,0.6v3.5l0.1,0.1h7.6l2.6,2.8l0.3,0.4V29l-3.8,4.2h-8.7
			l-3.4-3.8l-0.3-0.3v-3.4h5.5v1.9l0.7,0.9h3.7l0.7-0.9v-4.8l-0.1-0.1h-7.8l-2.8-3.3v-6.6l3.3-3.6l0.4-0.4h8.7L140.9,12.4z"/>
		<path class="st0" d="M154.7,33.2h-9V30l1.7-1.2V13.2l-1.7-1.2V8.7h9V12l-1.7,1.2v15.6l1.7,1.2V33.2z"/>
		<path class="st0" d="M176.6,12.5l0.3,0.4v7.9l-3.4,3.6l-0.4,0.4h-6.6v4l1.8,1.2v3.2h-9V30l1.7-1.2V13.2l-1.7-1.2V8.7h13.8
			L176.6,12.5z M171.4,14.4l-0.6-0.6h-4.3v6.1h4.3l0.6-0.6V14.4z"/>
		<path class="st0" d="M198.1,12.5l0.3,0.4v7.9l-3.4,3.6l-0.4,0.4H188v4l1.8,1.2v3.2h-9V30l1.7-1.2V13.2l-1.7-1.2V8.7h13.8
			L198.1,12.5z M192.9,14.4l-0.6-0.6H188v6.1h4.3l0.6-0.6V14.4z"/>
		<path class="st0" d="M211.2,33.2h-9V30l1.7-1.2V13.2l-1.7-1.2V8.7h9V12l-1.7,1.2v15.6l1.7,1.2V33.2z"/>
		<path class="st0" d="M243.5,12.4l0.3,0.4v2.8h-5.5v-1.1l-0.7-0.6h-3.8l-0.6,0.6v3.5l0.1,0.1h7.6l2.6,2.8l0.3,0.4V29l-3.8,4.2h-8.7
			l-3.4-3.8l-0.3-0.3v-3.4h5.5v1.9l0.7,0.9h3.7l0.7-0.9v-4.8l-0.1-0.1h-7.8l-2.8-3.3v-6.6l3.3-3.6l0.4-0.4h8.7L243.5,12.4z"/>
		<path class="st0" d="M247.3,8.7h19.6v7.7h-4.5v-2.7h-2.5v15l1.7,1.2v3.2h-8.9V30l1.7-1.2v-15h-2.5v2.7h-4.5V8.7z"/>
		<path class="st0" d="M286.8,30v3.2h-8.5v-3.3l1.7-1l-1-3.3h-5.7l-1.1,3.3l1.7,1v3.3h-8.1V30l1.6-1.3l5.9-19.1l0.3-0.9h5.7l5.9,20
			L286.8,30z M277.8,21.9l-1.7-5.8l-1.8,5.8H277.8z"/>
		<path class="st0" d="M285.5,8.7h19.6v7.7h-4.5v-2.7H298v15l1.7,1.2v3.2h-8.9V30l1.7-1.2v-15H290v2.7h-4.5V8.7z"/>
		<path class="st0" d="M308.6,8.7h17.8v7.6h-5.5v-2.6h-5.1v4.7h5.9v4.6h-5.9v5.1h5.1v-1.8h5.5v6.8h-17.8V30l1.7-1.2V13.2l-1.7-1.2
			V8.7z"/>
	</g>
	<g>
		<path class="st0" d="M81.9,43.1v6.4c0,0.4,0,0.7,0,0.9c0,0.2,0,0.4,0.1,0.6c0.1,0.3,0.2,0.5,0.4,0.8c0.4,0.5,0.9,0.8,1.6,0.8
			c0.7,0,1.3-0.3,1.7-0.8c0.2-0.2,0.3-0.5,0.3-0.8c0-0.1,0-0.3,0.1-0.6c0-0.2,0-0.5,0-0.9v-6.4h3.1v6.8c0,1-0.1,1.7-0.3,2.3
			c-0.2,0.6-0.6,1.1-1.1,1.6c-1,0.9-2.2,1.4-3.8,1.4c-1.7,0-3-0.5-3.9-1.4c-0.4-0.4-0.7-0.9-0.9-1.5c-0.2-0.6-0.3-1.4-0.3-2.4v-6.8
			H81.9z"/>
		<path class="st0" d="M100.1,55V43.1h3.1l5.7,7.3v-7.3h3.1V55h-3.1l-5.7-7.3V55H100.1z"/>
		<path class="st0" d="M125.9,43.1V55h-3.1V43.1H125.9z"/>
		<path class="st0" d="M139,43.1l2.9,7.2l2.9-7.2h3.3L143,55h-2.4l-5-11.9H139z"/>
		<path class="st0" d="M164.5,45.7h-3.7v2h3.5v2.6h-3.5v2.1h3.7V55h-6.8V43.1h6.8V45.7z"/>
		<path class="st0" d="M181,50.1l3.7,4.9h-3.8l-2.9-4.6V55h-3.1V43.1h4.8c1.4,0,2.4,0.4,3.1,1.3c0.5,0.7,0.8,1.5,0.8,2.4
			c0,0.9-0.2,1.6-0.7,2.2C182.5,49.5,181.8,49.9,181,50.1z M177.9,48.4h0.6c0.6,0,1.1-0.1,1.4-0.4c0.3-0.3,0.5-0.6,0.5-1.1
			c0-0.5-0.2-0.8-0.5-1.1c-0.3-0.3-0.8-0.4-1.4-0.4h-0.6V48.4z"/>
		<path class="st0" d="M202.2,43.8l-1.2,2.4c-0.7-0.5-1.3-0.8-2-0.8c-0.4,0-0.7,0.1-0.9,0.3c-0.3,0.2-0.4,0.4-0.4,0.7
			c0,0.3,0.2,0.6,0.6,0.8c0.2,0.1,0.7,0.3,1.6,0.5c1,0.3,1.8,0.7,2.2,1.2c0.5,0.5,0.7,1.2,0.7,2.1c0,1.3-0.4,2.4-1.2,3.1
			c-0.8,0.7-1.9,1.1-3.4,1.1c-1.5,0-2.8-0.4-4.1-1.3l1.3-2.5c0.9,0.8,1.8,1.2,2.7,1.2c0.2,0,0.4,0,0.6-0.1c0.2-0.1,0.3-0.1,0.5-0.2
			c0.1-0.1,0.2-0.2,0.3-0.4c0.1-0.1,0.1-0.3,0.1-0.5c0-0.3-0.1-0.6-0.4-0.8c-0.3-0.2-0.7-0.4-1.5-0.6c-1.1-0.3-1.9-0.7-2.3-1
			c-0.6-0.5-0.9-1.3-0.9-2.4c0-1.2,0.4-2.2,1.1-2.9c0.7-0.7,1.7-1.1,2.9-1.1C199.7,42.8,200.9,43.1,202.2,43.8z"/>
		<path class="st0" d="M216.1,43.1V55H213V43.1H216.1z"/>
		<path class="st0" d="M231.5,45.7V55h-3.1v-9.3h-2.5v-2.6h8.1v2.6H231.5z"/>
		<path class="st0" d="M247.4,49.3l-4.3-6.2h3.7l2.2,3.2l2.2-3.2h3.7l-4.4,6.2V55h-3.1V49.3z"/>
	</g>
	<g>
		<path class="st0" d="M262.7,52.4c0,1.5-1.2,2.8-2.8,2.8c-1.6,0-2.8-1.2-2.8-2.8c0-1.5,1.2-2.7,2.8-2.7
			C261.5,49.7,262.7,50.9,262.7,52.4z M257.9,52.4c0,1.2,0.9,2.2,2.1,2.2c1.2,0,2.1-1,2.1-2.2c0-1.2-0.9-2.2-2.1-2.2
			C258.7,50.3,257.9,51.2,257.9,52.4z M259.5,53.9h-0.6v-2.7c0.2,0,0.6-0.1,1-0.1c0.5,0,0.7,0.1,0.9,0.2c0.1,0.1,0.3,0.3,0.3,0.6
			c0,0.3-0.2,0.5-0.6,0.6v0c0.3,0.1,0.4,0.3,0.5,0.7c0.1,0.4,0.1,0.6,0.2,0.7h-0.7c-0.1-0.1-0.1-0.3-0.2-0.7c0-0.3-0.2-0.4-0.6-0.4
			h-0.3V53.9z M259.5,52.3h0.3c0.3,0,0.6-0.1,0.6-0.4c0-0.2-0.2-0.4-0.6-0.4c-0.2,0-0.3,0-0.3,0V52.3z"/>
	</g>
</g>
<g>
	<path class="st0" d="M262.7,52.4c0,1.5-1.2,2.8-2.8,2.8c-1.6,0-2.8-1.2-2.8-2.8c0-1.5,1.2-2.7,2.8-2.7
		C261.5,49.7,262.7,50.9,262.7,52.4z M257.9,52.4c0,1.2,0.9,2.2,2.1,2.2c1.2,0,2.1-1,2.1-2.2c0-1.2-0.9-2.2-2.1-2.2
		C258.7,50.3,257.9,51.2,257.9,52.4z M259.5,53.9h-0.6v-2.7c0.2,0,0.6-0.1,1-0.1c0.5,0,0.7,0.1,0.9,0.2c0.1,0.1,0.3,0.3,0.3,0.6
		c0,0.3-0.2,0.5-0.6,0.6v0c0.3,0.1,0.4,0.3,0.5,0.7c0.1,0.4,0.1,0.6,0.2,0.7h-0.7c-0.1-0.1-0.1-0.3-0.2-0.7c0-0.3-0.2-0.4-0.6-0.4
		h-0.3V53.9z M259.5,52.3h0.3c0.3,0,0.6-0.1,0.6-0.4c0-0.2-0.2-0.4-0.6-0.4c-0.2,0-0.3,0-0.3,0V52.3z"/>
</g>
</svg>
